<svg width="24" height="24" viewBox="0 0 24 24" fill="none" xmlns="http://www.w3.org/2000/svg">
<g clip-path="url(#clip0_17_868)">
<path d="M20 15.45C18.75 15.45 17.55 15.25 16.43 14.88C16.33 14.85 16.22 14.83 16.12 14.83C15.86 14.83 15.61 14.93 15.41 15.12L13.21 17.32C10.38 15.88 8.06 13.57 6.62 10.73L8.82 8.52001C9.1 8.26001 9.18 7.87001 9.07 7.52001C8.7 6.40001 8.5 5.20001 8.5 3.95001C8.5 3.40001 8.05 2.95001 7.5 2.95001H4C3.45 2.95001 3 3.40001 3 3.95001C3 13.34 10.61 20.95 20 20.95C20.55 20.95 21 20.5 21 19.95V16.45C21 15.9 20.55 15.45 20 15.45ZM5.03 4.95001H6.53C6.6 5.83001 6.75 6.70001 6.98 7.53001L5.78 8.74001C5.38 7.53001 5.12 6.27001 5.03 4.95001ZM19 18.92C17.68 18.83 16.4 18.57 15.2 18.16L16.4 16.96C17.25 17.2 18.12 17.35 19 17.41V18.92ZM18 5.95001V2.95001H16V5.95001H13V7.95001H16V10.95H18V7.95001H21V5.95001H18Z" fill="#323232"/>
</g>
<defs>
<clipPath id="clip0_17_868">
<rect width="24" height="24" fill="white"/>
</clipPath>
</defs>
</svg>
