<svg width="24" height="24" viewBox="0 0 24 24" fill="none" xmlns="http://www.w3.org/2000/svg">
<g clip-path="url(#clip0_17_4716)">
<path d="M21.5998 18.2L12.9998 11.75V10.84C14.6498 10.35 15.7998 8.66997 15.4298 6.78997C15.1698 5.47997 14.1298 4.38997 12.8198 4.08997C10.5398 3.56997 8.49977 5.29997 8.49977 7.49997H10.4998C10.4998 6.66997 11.1698 5.99997 11.9998 5.99997C12.8298 5.99997 13.4998 6.66997 13.4998 7.49997C13.4998 8.33997 12.8098 9.01997 11.9698 8.99997C11.4298 8.98997 10.9998 9.44997 10.9998 9.98997V11.75L2.39977 18.2C1.62977 18.78 2.03977 20 2.99977 20H11.9998H20.9998C21.9598 20 22.3698 18.78 21.5998 18.2ZM5.99977 18L11.9998 13.5L17.9998 18H5.99977Z" fill="#323232"/>
</g>
<defs>
<clipPath id="clip0_17_4716">
<rect width="24" height="24" fill="white"/>
</clipPath>
</defs>
</svg>
