<svg width="24" height="24" viewBox="0 0 24 24" fill="none" xmlns="http://www.w3.org/2000/svg">
<g clip-path="url(#clip0_17_502)">
<path d="M13 10C13 9.45 13.45 9 14 9H17C17.55 9 18 9.45 18 10V11H16.5V10.5H14.5V11.5L13 10ZM16.5 13.5L17.71 14.71C17.89 14.52 18 14.27 18 14V13H16.5V13.5ZM8.83001 6H19V16.17L20.98 18.15C20.98 18.1 21 18.05 21 17.99V6C21 4.9 20.1 4 19 4H6.83001L8.83001 6ZM19.78 22.61L17.17 20H5.00001C3.89001 20 3.00001 19.1 3.00001 18V6C3.00001 5.95 3.02001 5.9 3.02001 5.85L1.39001 4.22L2.80001 2.81L21.18 21.19L19.78 22.61ZM7.50001 13.5H9.50001V13H10.17L7.67001 10.5H7.50001V13.5ZM15.17 18L11 13.83V14C11 14.55 10.55 15 10 15H7.00001C6.45001 15 6.00001 14.55 6.00001 14V10C6.00001 9.68 6.16002 9.41 6.40001 9.22L5.00001 7.83V18H15.17Z" fill="#323232"/>
</g>
<defs>
<clipPath id="clip0_17_502">
<rect width="24" height="24" fill="white"/>
</clipPath>
</defs>
</svg>
