<svg width="24" height="24" viewBox="0 0 24 24" fill="none" xmlns="http://www.w3.org/2000/svg">
<g clip-path="url(#clip0_17_4525)">
<path d="M20.97 7.27C21.36 6.88 21.36 6.25 20.97 5.86L18.14 3.03C17.75 2.64 17.12 2.64 16.73 3.03L12.24 7.52L8.35 3.63C7.57 2.85 6.3 2.85 5.52 3.63L3.62 5.53C2.84 6.31 2.84 7.58 3.62 8.36L7.51 12.25L3 16.76V21H7.24L11.76 16.48L15.65 20.37C16.6 21.32 17.88 20.97 18.48 20.37L20.38 18.47C21.16 17.69 21.16 16.42 20.38 15.64L16.49 11.75L20.97 7.27ZM5.04 6.94L6.93 5.04L8.2 6.31L7.02 7.5L8.43 8.91L9.62 7.72L10.82 8.92L8.92 10.82L5.04 6.94ZM16.27 14.38L15.08 15.57L16.49 16.98L17.68 15.79L18.95 17.06L17.05 18.96L13.16 15.07L15.06 13.17L16.27 14.38ZM6.41 19H5V17.59L14.61 7.98L15.91 9.28L16.02 9.39L6.41 19ZM16.02 6.56L17.43 5.15L18.84 6.56L17.43 7.97L16.02 6.56Z" fill="#323232"/>
</g>
<defs>
<clipPath id="clip0_17_4525">
<rect width="24" height="24" fill="white"/>
</clipPath>
</defs>
</svg>
