<svg width="24" height="24" viewBox="0 0 24 24" fill="none" xmlns="http://www.w3.org/2000/svg">
<g clip-path="url(#clip0_17_2723)">
<path d="M18.7001 12.4C18.42 12.24 18.13 12.11 17.84 12C18.13 11.89 18.42 11.76 18.7001 11.6C20.6201 10.49 21.6901 8.48 21.7001 6.41C20.7901 5.89 19.75 5.61 18.6901 5.61C17.67 5.61 16.64 5.87 15.7 6.41C15.42 6.57 15.16 6.76 14.92 6.95C14.97 6.64 15 6.32 15 6C15 3.78 13.79 1.85 12 0.809998C10.21 1.85 9.00005 3.78 9.00005 6C9.00005 6.32 9.03005 6.64 9.08005 6.95C8.84005 6.75 8.58005 6.56 8.30005 6.4C7.36005 5.86 6.33005 5.6 5.31005 5.6C4.26005 5.6 3.21005 5.88 2.30005 6.4C2.30005 8.47 3.37005 10.48 5.30005 11.59C5.58005 11.75 5.87005 11.88 6.16005 11.99C5.87005 12.1 5.58005 12.23 5.30005 12.39C3.38005 13.5 2.31005 15.51 2.30005 17.58C3.21005 18.1 4.25005 18.38 5.31005 18.38C6.33005 18.38 7.36005 18.12 8.30005 17.58C8.58005 17.42 8.84005 17.23 9.08005 17.04C9.03005 17.36 9.00005 17.68 9.00005 18C9.00005 20.22 10.21 22.15 12 23.19C13.79 22.15 15 20.22 15 18C15 17.68 14.97 17.36 14.92 17.05C15.16 17.25 15.42 17.43 15.7 17.59C16.64 18.13 17.67 18.39 18.6901 18.39C19.74 18.39 20.7901 18.11 21.7001 17.59C21.6901 15.52 20.6201 13.51 18.7001 12.4ZM16.16 8.52C16.37 8.35 16.54 8.23 16.7 8.15C17.31 7.8 18.0001 7.61 18.7001 7.61C18.9701 7.61 19.23 7.64 19.49 7.69C19.18 8.6 18.55 9.38 17.71 9.87C17.54 9.97 17.35 10.05 17.13 10.14L15.75 10.66C15.58 10.2 15.34 9.79 15.03 9.42L16.16 8.52ZM12 3.37C12.63 4.09 13 5.03 13 6C13 6.19 12.98 6.41 12.95 6.63L12.72 8.07C12.48 8.03 12.24 8 12 8C11.76 8 11.52 8.03 11.29 8.07L11.06 6.63C11.02 6.41 11 6.19 11 6C11 5.02 11.37 4.09 12 3.37ZM4.51005 7.68C4.77005 7.62 5.04005 7.6 5.31005 7.6C6.00005 7.6 6.69005 7.78 7.30005 8.14C7.45005 8.23 7.62005 8.34 7.79005 8.49L8.94005 9.45C8.64005 9.81 8.41005 10.21 8.24005 10.65L6.86005 10.13C6.65005 10.04 6.46005 9.95 6.30005 9.86C5.43005 9.36 4.81005 8.59 4.51005 7.68ZM7.84005 15.47C7.63005 15.64 7.46005 15.76 7.30005 15.84C6.69005 16.19 6.00005 16.38 5.30005 16.38C5.03005 16.38 4.77005 16.35 4.51005 16.3C4.82005 15.39 5.45005 14.61 6.29005 14.12C6.46005 14.02 6.65005 13.94 6.87005 13.85L8.25005 13.33C8.41005 13.79 8.66005 14.21 8.97005 14.57L7.84005 15.47ZM12 20.63C11.37 19.91 11 18.97 11 18C11 17.8 11.02 17.59 11.06 17.35L11.28 15.93C11.51 15.97 11.75 16 12 16C12.24 16 12.48 15.97 12.71 15.93L12.94 17.37C12.98 17.59 13 17.81 13 18C13 18.98 12.63 19.91 12 20.63ZM18.6901 16.39C18.0001 16.39 17.31 16.21 16.7 15.85C16.52 15.75 16.36 15.63 16.21 15.51L15.06 14.55C15.36 14.19 15.6 13.79 15.76 13.34L17.14 13.86C17.36 13.94 17.55 14.03 17.71 14.12C18.56 14.61 19.18 15.39 19.49 16.3C19.22 16.37 18.9501 16.39 18.6901 16.39Z" fill="#323232"/>
</g>
<defs>
<clipPath id="clip0_17_2723">
<rect width="24" height="24" fill="white"/>
</clipPath>
</defs>
</svg>
