<svg width="24" height="24" viewBox="0 0 24 24" fill="none" xmlns="http://www.w3.org/2000/svg">
<g clip-path="url(#clip0_17_2789)">
<path d="M21.8999 21.9L15.7999 15.8L13.1099 13.11L4.99994 4.99998L3.58994 3.58998L2.09994 2.09998L0.689941 3.50998L2.99994 5.82998V19C2.99994 20.1 3.89994 21 4.99994 21H18.1699L20.4799 23.31L21.8999 21.9ZM4.99994 19V7.82998L11.8399 14.67L10.9999 15.72L8.99994 13L5.99994 17H14.1699L16.1699 19H4.99994ZM7.82994 4.99998L5.82994 2.99998H18.9999C20.0999 2.99998 20.9999 3.89998 20.9999 4.99998V18.17L18.9999 16.17V4.99998H7.82994Z" fill="#323232"/>
</g>
<defs>
<clipPath id="clip0_17_2789">
<rect width="24" height="24" fill="white"/>
</clipPath>
</defs>
</svg>
