<svg width="24" height="24" viewBox="0 0 24 24" fill="none" xmlns="http://www.w3.org/2000/svg">
<g clip-path="url(#clip0_17_2683)">
<path d="M13 16.12H12.97C16.46 15.72 19.17 12.76 19.17 9.16998C19.17 5.29998 16.04 2.16998 12.17 2.16998C8.3 2.16998 5.17 5.29998 5.17 9.16998C5.17 12.64 7.69 15.51 11 16.06V20H5V22H19V20H13V16.12ZM7.17 9.16998C7.17 6.40998 9.41 4.16998 12.17 4.16998C14.93 4.16998 17.17 6.40998 17.17 9.16998C17.17 11.93 14.93 14.17 12.17 14.17C9.41 14.17 7.17 11.93 7.17 9.16998Z" fill="#323232"/>
</g>
<defs>
<clipPath id="clip0_17_2683">
<rect width="24" height="24" fill="white"/>
</clipPath>
</defs>
</svg>
