<svg width="24" height="24" viewBox="0 0 24 24" fill="none" xmlns="http://www.w3.org/2000/svg">
<g clip-path="url(#clip0_17_4674)">
<path d="M8.90018 6.06998L7.48018 4.65998L9.00018 2.99998H15.0002L16.8302 4.99998H20.0002C21.1002 4.99998 22.0002 5.89998 22.0002 6.99998V19C22.0002 19.05 21.9902 19.1 21.9802 19.16L20.0002 17.17V6.99998H15.9502L14.1202 4.99998H9.88018L8.90018 6.06998ZM20.4902 23.31L18.1702 21H4.00018C2.90018 21 2.00018 20.1 2.00018 19V6.99998C2.00018 6.40998 2.27018 5.87998 2.68018 5.50998L0.680176 3.50998L2.10018 2.09998L21.9002 21.9L20.4902 23.31ZM9.19018 12.02C9.08018 12.33 9.00018 12.65 9.00018 13C9.00018 14.66 10.3402 16 12.0002 16C12.3502 16 12.6702 15.92 12.9802 15.81L9.19018 12.02ZM16.1702 19L14.4902 17.32C13.7602 17.75 12.9102 18 12.0002 18C9.24018 18 7.00018 15.76 7.00018 13C7.00018 12.09 7.25018 11.24 7.68018 10.51L4.17018 6.99998H4.00018V19H16.1702ZM14.8102 11.98L16.8802 14.05C16.9602 13.71 17.0002 13.36 17.0002 13C17.0002 10.24 14.7602 7.99998 12.0002 7.99998C11.6402 7.99998 11.2902 8.03998 10.9402 8.11998L13.0102 10.19C13.8502 10.49 14.5102 11.15 14.8102 11.98Z" fill="#323232"/>
</g>
<defs>
<clipPath id="clip0_17_4674">
<rect width="24" height="24" fill="white"/>
</clipPath>
</defs>
</svg>
