<svg width="24" height="24" viewBox="0 0 24 24" fill="none" xmlns="http://www.w3.org/2000/svg">
<g clip-path="url(#clip0_17_4529)">
<path d="M19.28 4.92998L17.16 2.80998C16.38 2.02998 15.11 2.02998 14.33 2.80998L11.5 5.63998L13.62 7.75998L15.74 5.63998L19.28 9.17998C20.45 7.99998 20.45 6.09998 19.28 4.92998Z" fill="#323232"/>
<path d="M5.49035 13.77C6.08035 14.36 7.03035 14.36 7.61035 13.77L10.0804 11.3L7.96035 9.16998L5.49035 11.64C4.90035 12.23 4.90035 13.18 5.49035 13.77Z" fill="#323232"/>
<path d="M15.0402 7.75996L14.3302 8.46996L13.6202 9.17996L10.4402 5.99996C9.85021 5.39996 8.90021 5.39996 8.32021 5.98996C7.73021 6.57996 7.73021 7.52996 8.32021 8.10996L11.5002 11.29L10.7902 12L4.43021 18.36C3.65021 19.14 3.65021 20.41 4.43021 21.19C5.21021 21.97 6.48022 21.97 7.26022 21.19L16.4502 12C16.8402 12.39 17.4702 12.39 17.8602 12C18.2502 11.61 18.2502 10.98 17.8602 10.59L15.0402 7.75996Z" fill="#323232"/>
</g>
<defs>
<clipPath id="clip0_17_4529">
<rect width="24" height="24" fill="white"/>
</clipPath>
</defs>
</svg>
