<svg width="24" height="24" viewBox="0 0 24 24" fill="none" xmlns="http://www.w3.org/2000/svg">
<g clip-path="url(#clip0_17_4734)">
<path d="M20.4898 3.50998C19.9298 2.94998 18.3398 2.53998 16.3298 2.53998C13.2498 2.53998 9.17976 3.49998 6.34976 6.32998C1.65976 11.03 2.09976 19.07 3.50976 20.49C4.06976 21.05 5.65976 21.46 7.66976 21.46C10.7498 21.46 14.8198 20.5 17.6498 17.67C22.3398 12.97 21.8998 4.92998 20.4898 3.50998ZM5.70976 18.29C6.33976 16.4 7.86976 13.3 10.5798 10.59C13.2598 7.90998 16.3598 6.35998 18.2798 5.70998C17.6498 7.59998 16.1198 10.7 13.3998 13.41C10.7398 16.09 7.63976 17.64 5.70976 18.29ZM7.75976 7.75998C10.3998 5.11998 14.0998 4.63998 15.7898 4.56998C13.7398 5.50998 11.3298 7.02998 9.17976 9.17998C7.01976 11.34 5.50976 13.76 4.56976 15.81C4.65976 13.33 5.43976 10.07 7.75976 7.75998ZM16.2398 16.24C13.5998 18.88 9.89976 19.36 8.20976 19.43C10.2598 18.49 12.6698 16.97 14.8198 14.82C16.9798 12.66 18.4898 10.24 19.4398 8.18998C19.3398 10.67 18.5598 13.93 16.2398 16.24Z" fill="#323232"/>
</g>
<defs>
<clipPath id="clip0_17_4734">
<rect width="24" height="24" fill="white"/>
</clipPath>
</defs>
</svg>
