<svg width="24" height="24" viewBox="0 0 24 24" fill="none" xmlns="http://www.w3.org/2000/svg">
<g clip-path="url(#clip0_17_4736)">
<path d="M14.2698 6.00002C13.7198 6.95002 14.0498 8.18002 14.9998 8.73002C15.9498 9.28001 17.1798 8.95002 17.7298 8.00002C18.2798 7.05002 17.9498 5.82002 16.9998 5.27002C16.0498 4.72002 14.8198 5.05002 14.2698 6.00002Z" fill="#323232"/>
<path d="M15.8398 10.41C15.8398 10.41 14.2098 9.47003 13.2398 8.91003C10.8598 7.53003 10.0398 4.47003 11.4198 2.09003L9.68976 1.09003C8.09976 3.83003 8.59977 7.21003 10.6598 9.40003L5.50977 18.32L7.23977 19.32L8.73977 16.72L10.4698 17.72L7.46977 22.92L9.19977 23.92L15.4898 13.03C16.6298 14.58 16.8198 16.72 15.7998 18.49L17.5298 19.49C19.1298 16.74 18.8098 12.91 15.8398 10.41Z" fill="#323232"/>
<path d="M12.7497 3.80002C13.4697 4.21002 14.3797 3.97002 14.7997 3.25002C15.2097 2.53002 14.9697 1.62002 14.2497 1.20002C13.5297 0.790021 12.6197 1.03002 12.1997 1.75002C11.7897 2.47002 12.0297 3.39002 12.7497 3.80002Z" fill="#323232"/>
</g>
<defs>
<clipPath id="clip0_17_4736">
<rect width="24" height="24" fill="white"/>
</clipPath>
</defs>
</svg>
