<svg width="24" height="24" viewBox="0 0 24 24" fill="none" xmlns="http://www.w3.org/2000/svg">
<g clip-path="url(#clip0_17_4770)">
<path d="M16.5 4.38C17.6046 4.38 18.5 3.48457 18.5 2.38C18.5 1.27544 17.6046 0.380005 16.5 0.380005C15.3954 0.380005 14.5 1.27544 14.5 2.38C14.5 3.48457 15.3954 4.38 16.5 4.38Z" fill="#323232"/>
<path d="M23.9996 11.88V7.18001L18.9496 5.04001C17.9796 4.63001 16.8596 4.98001 16.2996 5.88001L15.2996 7.48001C14.6296 8.66001 13.3896 9.54001 11.8896 9.80001L11.9496 9.86001C12.6396 10.55 13.4696 10.93 14.4096 11.03C15.2096 10.61 15.9296 10.05 16.4996 9.39001L17.0996 12.39L15.9396 13.49L14.9996 14.38V15.14V21.88H16.9996V15.88L19.0996 13.88L20.8996 21.88H22.9996L20.8196 10.88L20.1996 7.78001L21.9996 8.48001V11.88H23.9996Z" fill="#323232"/>
<path d="M10.29 8.09003C10.51 8.24003 10.76 8.33003 11.01 8.38003C11.14 8.40003 11.26 8.42003 11.39 8.42003C11.52 8.42003 11.65 8.41003 11.77 8.38003C11.9 8.36003 12.02 8.32003 12.14 8.27003C12.38 8.17003 12.61 8.03003 12.8 7.83003C13.29 7.34003 13.47 6.66003 13.35 6.03003C13.28 5.66003 13.1 5.29003 12.8 5.00003C12.61 4.81003 12.38 4.66003 12.14 4.56003C12.02 4.51003 11.9 4.47003 11.77 4.45003C11.64 4.43003 11.52 4.41003 11.39 4.41003C11.27 4.41003 11.16 4.42003 11.04 4.44003C10.9 4.46003 10.76 4.50003 10.63 4.55003C10.4 4.66003 10.17 4.81003 9.97996 5.00003C9.67996 5.29003 9.49996 5.66003 9.42996 6.03003C9.30996 6.66003 9.48996 7.34003 9.97996 7.83003C10.07 7.93003 10.18 8.01003 10.29 8.09003Z" fill="#323232"/>
<path d="M11.2398 10.56L9.2398 8.55998C9.1398 8.45998 9.0398 8.37998 8.9298 8.29998C8.7098 8.15998 8.4598 8.05998 8.2098 8.01998C8.0798 7.98998 7.9598 7.97998 7.8298 7.97998C7.3198 7.97998 6.8098 8.17998 6.4198 8.56998L3.0798 11.91C2.6698 12.32 2.4598 12.89 2.4998 13.45C2.4998 13.63 2.5398 13.82 2.6098 14L3.6798 16.95L0.0498047 20.58L1.4598 22L5.6998 17.76V15.54L6.9998 16.75V21.88H8.9998V15.88L6.8798 13.76L9.2398 11.4L9.9498 12.11C11.2398 13.37 12.9198 14.15 14.9798 14.15L14.8398 12.08C13.3398 12.06 12.1398 11.46 11.2398 10.56Z" fill="#323232"/>
</g>
<defs>
<clipPath id="clip0_17_4770">
<rect width="24" height="24" fill="white"/>
</clipPath>
</defs>
</svg>
