<svg width="24" height="24" viewBox="0 0 24 24" fill="none" xmlns="http://www.w3.org/2000/svg">
<g clip-path="url(#clip0_17_859)">
<path d="M21.79 17.9999L23.79 19.9999H24V17.9999H21.79ZM1.11 2.97995L2.66 4.53995C2.25 4.90995 2 5.42995 2 6.01995V15.9999C2 17.0999 2.9 17.9999 4.01 17.9999H0V19.9999H18.13L20.84 22.7099L22.25 21.2999L2.52 1.56995L1.11 2.97995ZM4 6.01995H4.13L9.08 10.9499C7.94 12.0699 7.31 13.5199 7 14.9999C7.96 13.7099 9.13 12.9199 10.67 12.5399L14.13 16.0199H4V6.01995ZM20 6.01995V16.2099L21.3 17.5099C21.72 17.1399 22 16.6199 22 16.0199V6.01995C22 4.90995 21.1 4.01995 20 4.01995H7.8L9.8 6.01995H20ZM12.93 9.14995L15.72 11.9299L17 10.7299L13 6.99995V9.12995L12.93 9.14995Z" fill="#323232"/>
</g>
<defs>
<clipPath id="clip0_17_859">
<rect width="24" height="24" fill="white"/>
</clipPath>
</defs>
</svg>
