<svg width="24" height="24" viewBox="0 0 24 24" fill="none" xmlns="http://www.w3.org/2000/svg">
<g clip-path="url(#clip0_17_4730)">
<path d="M11.57 13.16C10.21 13.44 9.4 14.32 9.4 15.57C9.4 16.91 10.51 17.99 11.89 17.99C13.94 17.99 15.6 16.33 15.6 14.28C15.6 13.21 15.45 12.16 15.14 11.16C14.35 12.23 12.94 12.88 11.57 13.16ZM13.5 0.669983C13.5 0.669983 14.24 3.31998 14.24 5.46998C14.24 7.52998 12.89 9.19998 10.83 9.19998C8.76 9.19998 7.2 7.52998 7.2 5.46998L7.23 5.10998C5.21 7.50998 4 10.62 4 14C4 18.42 7.58 22 12 22C16.42 22 20 18.42 20 14C20 8.60998 17.41 3.79998 13.5 0.669983ZM12 20C8.69 20 6 17.31 6 14C6 12.47 6.3 10.96 6.86 9.56998C7.87 10.58 9.27 11.2 10.83 11.2C13.49 11.2 15.58 9.36998 16.11 6.76998C17.34 8.96998 18 11.44 18 14C18 17.31 15.31 20 12 20Z" fill="#323232"/>
</g>
<defs>
<clipPath id="clip0_17_4730">
<rect width="24" height="24" fill="white"/>
</clipPath>
</defs>
</svg>
